<mxfile host="vta">
  <diagram id="L6z" name="Horizontal">
    <mxGraphModel dx="0" dy="0" background="#FFFACD" grid="0" gridSize="10" guides="1" tooltips="1" connect="1" arrows="1" fold="1" page="1" pageScale="1" pageWidth="1169" pageHeight="827" math="0" shadow="0">
      <root>
        <mxCell id="page_root_L6z" parent="L6z"/>
        <mxCell id="node_root_L6z" parent="page_root_L6z"/>
        <mxCell id="L6z-2" value="Horizontal" style="whiteSpace=wrap;html=1;fontColor=#aaaaaa;text;fontSize=37;fontStyle=1;fillColor=none" vertex="1" parent="node_root_L6z">
          <mxGeometry x="60" y="85" width="100" height="50" as="geometry"/>
        </mxCell>
        <mxCell id="L6z-3" value="01" style="whiteSpace=wrap;html=1;fillColor=#f5f5f5;strokeColor=#666666;fontColor=#333333;ellipse" vertex="1" parent="node_root_L6z">
          <mxGeometry x="250" y="30" width="160" height="160" as="geometry"/>
        </mxCell>
        <mxCell id="L6z-4" value="02" style="whiteSpace=wrap;html=1;fillColor=#f5f5f5;strokeColor=#666666;fontColor=#333333" vertex="1" parent="node_root_L6z">
          <mxGeometry x="470" y="30" width="160" height="160" as="geometry"/>
        </mxCell>
        <mxCell id="L6z-5" value="03" style="whiteSpace=wrap;html=1;fillColor=#f5f5f5;strokeColor=#666666;fontColor=#333333;ellipse" vertex="1" parent="node_root_L6z">
          <mxGeometry x="30" y="250" width="160" height="160" as="geometry"/>
        </mxCell>
        <mxCell id="L6z-6" value="04" style="whiteSpace=wrap;html=1;fillColor=#f5f5f5;strokeColor=#666666;fontColor=#333333" vertex="1" parent="node_root_L6z">
          <mxGeometry x="250" y="250" width="160" height="160" as="geometry"/>
        </mxCell>
        <mxCell id="L6z-7" value="05" style="whiteSpace=wrap;html=1;fillColor=#f5f5f5;strokeColor=#666666;fontColor=#333333;ellipse" vertex="1" parent="node_root_L6z">
          <mxGeometry x="470" y="250" width="160" height="160" as="geometry"/>
        </mxCell>
        <mxCell id="L6z-8" value="06" style="whiteSpace=wrap;html=1;fillColor=#f5f5f5;strokeColor=#666666;fontColor=#333333" vertex="1" parent="node_root_L6z">
          <mxGeometry x="30" y="470" width="160" height="160" as="geometry"/>
        </mxCell>
        <mxCell id="L6z-9" value="07" style="whiteSpace=wrap;html=1;fillColor=#f5f5f5;strokeColor=#666666;fontColor=#333333;ellipse" vertex="1" parent="node_root_L6z">
          <mxGeometry x="250" y="470" width="160" height="160" as="geometry"/>
        </mxCell>
      </root>
    </mxGraphModel>
  </diagram>
  <diagram id="fL5" name="Vertical">
    <mxGraphModel dx="0" dy="0" background="#FFFACD" grid="0" gridSize="10" guides="1" tooltips="1" connect="1" arrows="1" fold="1" page="1" pageScale="1" pageWidth="1169" pageHeight="827" math="0" shadow="0">
      <root>
        <mxCell id="page_root_fL5" parent="fL5"/>
        <mxCell id="node_root_fL5" parent="page_root_fL5"/>
        <mxCell id="fL5-2" value="Vertical" style="whiteSpace=wrap;html=1;fontColor=#aaaaaa;text;fontSize=37;fontStyle=1;fillColor=none" vertex="1" parent="node_root_fL5">
          <mxGeometry x="60" y="85" width="100" height="50" as="geometry"/>
        </mxCell>
        <mxCell id="fL5-3" value="01" style="whiteSpace=wrap;html=1;fillColor=#f5f5f5;strokeColor=#666666;fontColor=#333333;ellipse" vertex="1" parent="node_root_fL5">
          <mxGeometry x="30" y="250" width="160" height="160" as="geometry"/>
        </mxCell>
        <mxCell id="fL5-4" value="02" style="whiteSpace=wrap;html=1;fillColor=#f5f5f5;strokeColor=#666666;fontColor=#333333" vertex="1" parent="node_root_fL5">
          <mxGeometry x="30" y="470" width="160" height="160" as="geometry"/>
        </mxCell>
        <mxCell id="fL5-5" value="03" style="whiteSpace=wrap;html=1;fillColor=#f5f5f5;strokeColor=#666666;fontColor=#333333;ellipse" vertex="1" parent="node_root_fL5">
          <mxGeometry x="250" y="30" width="160" height="160" as="geometry"/>
        </mxCell>
        <mxCell id="fL5-6" value="04" style="whiteSpace=wrap;html=1;fillColor=#f5f5f5;strokeColor=#666666;fontColor=#333333" vertex="1" parent="node_root_fL5">
          <mxGeometry x="250" y="250" width="160" height="160" as="geometry"/>
        </mxCell>
        <mxCell id="fL5-7" value="05" style="whiteSpace=wrap;html=1;fillColor=#f5f5f5;strokeColor=#666666;fontColor=#333333;ellipse" vertex="1" parent="node_root_fL5">
          <mxGeometry x="250" y="470" width="160" height="160" as="geometry"/>
        </mxCell>
        <mxCell id="fL5-8" value="06" style="whiteSpace=wrap;html=1;fillColor=#f5f5f5;strokeColor=#666666;fontColor=#333333" vertex="1" parent="node_root_fL5">
          <mxGeometry x="470" y="30" width="160" height="160" as="geometry"/>
        </mxCell>
        <mxCell id="fL5-9" value="07" style="whiteSpace=wrap;html=1;fillColor=#f5f5f5;strokeColor=#666666;fontColor=#333333;ellipse" vertex="1" parent="node_root_fL5">
          <mxGeometry x="470" y="250" width="160" height="160" as="geometry"/>
        </mxCell>
      </root>
    </mxGraphModel>
  </diagram>
</mxfile>